<svg xmlns="http://www.w3.org/2000/svg" viewBox="0 0 999.9 999.9">
  <title>GitHub Logo</title>
  <path d="M0 500C0 362 48.8 244 146.5 146.5 244 48.8 362 0 500 0s255.8 48.8 353.5 146.5C951 244 999.9 362 999.9 500s-48.8 255.8-146.4 353.5C755.8 951 638 999.9 500 999.9S244 951.1 146.5 853.5C48.8 755.8 0 638 0 500zm54.7 0c0 122.4 43.6 227.2 130.8 314.4 87.3 87.2 192 130.9 314.5 130.9 122.4 0 227.2-43.7 314.4-130.9 87.2-87.2 130.9-192 130.9-314.4 0-122.4-43.7-227.2-130.9-314.5C727.2 98.3 622.4 54.7 500 54.7c-122.4 0-227.2 43.6-314.5 130.8C98.3 272.8 54.7 377.5 54.7 500zm140.6 107.4c-2.6-2.6-2.6-5.2 0-7.8a21.1 21.1 0 0119.5-5.9c7.8 1.3 12.4 2.6 13.7 4 9.1 3.8 19.2 12.6 30.3 26.3a199 199 0 0026.3 28.3c31.3 26 63.2 28 95.7 5.9 2.6-9.2 6.9-17 12.7-23.5 5.9-6.5 11.4-11 16.6-13.6 5.2-2.7 14.4-6.6 27.4-11.8-43-3.9-77.8-11.4-104.5-22.4s-47.9-25-63.5-42c-20.8-23.5-33.5-54-38-91.8a235 235 0 018.7-103.5 172 172 0 0133.2-52.7c-10.4-32.6-8.4-69.7 5.9-111.4 41.6 2.6 79.4 17 113.3 43a427.9 427.9 0 01203-2 367 367 0 0142-24.4 171.7 171.7 0 0171.3-16.6c5.2 14.4 8.8 31.3 10.8 50.8s1 37.8-3 54.7c30 31.2 45.6 73 47 125 0 41.7-7.2 76.2-21.6 103.5s-39.7 50.1-76.1 68.3c-24.8 11.8-57.3 19-97.7 21.5a129.3 129.3 0 0140 28.4c8.5 9.7 14 25 16.7 45.8v61.6l2 59.5a69 69 0 0013.6 16.6c5.2 4.6 9.7 7.8 13.7 9.8 3.9 2 5.2 4.9 3.9 8.8-1.3 3.9-6.6 5.8-15.7 5.8a65 65 0 01-52.7-23.4c-3.9-6.5-5.9-14.3-5.9-23.4V705c0-10.4-2.6-17.9-7.8-22.4a38.1 38.1 0 00-15.6-8.8v123c0 22.2 2.6 36.5 7.8 43s8.5 13 9.8 19.5c1.3 1.3.3 2.3-3 3-3.2.6-8.7-.4-16.5-3-17-3.9-28.7-12.7-35.2-26.3a101 101 0 01-9.8-44V668h-25.4v121c0 15.6-3.2 30.6-9.7 45-9.1 18.2-26 28-50.8 29.2-3.9-1.3-5.9-2.6-5.9-3.9 1.4-1.3 5.3-7.8 11.8-19.5a113.5 113.5 0 007.8-43v-123c-5.2 1.3-10.1 4.2-14.7 8.8s-6.8 12-6.8 22.4v93.8c0 9-2 16.9-5.9 23.4-11.7 15.6-29.3 23.5-52.7 23.5-9.1 0-14.3-2-15.6-6-1.3-2.5-1-4.8 1-6.7s4.8-4.3 8.7-6.9c4-2.6 6.6-4.5 7.9-5.8 5.2-4 9-9.2 11.7-15.7 3.9-5.2 4.9-18.8 3-41s-2.4-36.4-1-43c-34 11.8-68.4 6-103.6-17.5a190.8 190.8 0 01-31.2-45c-7.8-14.3-23.5-31.2-46.9-50.7z"/>
</svg>
