<svg xmlns="http://www.w3.org/2000/svg" viewBox="0 0 54 54">
  <title>
    GitHub Logo
  </title>
  <path fill-rule="evenodd" d="M51.03 2.97C49.047.99 46.663 0 43.874 0h-33.75C7.336 0 4.95.99 2.97 2.97.99 4.951 0 7.336 0 10.125v33.75c0 2.79.99 5.174 2.97 7.154C4.951 53.01 7.336 54 10.125 54H18c.515 0 .902-.018 1.16-.052.257-.036.515-.188.773-.458s.387-.662.387-1.178l-.018-2.39c-.012-1.524-.018-2.731-.018-3.622l-.808.14c-.516.095-1.166.136-1.952.124-.785-.012-1.6-.094-2.443-.246a5.472 5.472 0 0 1-2.355-1.055 4.457 4.457 0 0 1-1.547-2.162l-.352-.809c-.234-.538-.603-1.136-1.107-1.792-.504-.656-1.013-1.102-1.53-1.336l-.245-.176a2.57 2.57 0 0 1-.457-.422 1.936 1.936 0 0 1-.316-.492c-.07-.164-.012-.3.175-.405.188-.106.528-.158 1.02-.158l.703.106c.468.093 1.048.374 1.74.843a5.67 5.67 0 0 1 1.705 1.828c.54.961 1.19 1.693 1.951 2.197.762.504 1.53.756 2.303.756.773 0 1.441-.058 2.004-.175a6.97 6.97 0 0 0 1.582-.528c.21-1.57.785-2.778 1.722-3.621-1.336-.141-2.537-.352-3.603-.633-1.067-.282-2.168-.739-3.305-1.372-1.137-.633-2.08-1.417-2.83-2.355s-1.365-2.169-1.846-3.692c-.48-1.523-.72-3.281-.72-5.273 0-2.836.926-5.25 2.777-7.243-.867-2.132-.785-4.523.246-7.171.68-.211 1.688-.053 3.024.474 1.336.528 2.314.98 2.935 1.354.622.375 1.12.691 1.495.95 2.18-.61 4.43-.915 6.75-.915 2.32 0 4.57.305 6.75.914l1.336-.843c.915-.563 1.992-1.079 3.235-1.547 1.242-.469 2.191-.598 2.848-.387 1.054 2.649 1.148 5.04.28 7.172 1.852 1.992 2.778 4.406 2.778 7.242 0 1.992-.24 3.756-.72 5.291-.48 1.535-1.102 2.766-1.864 3.692-.761.926-1.71 1.705-2.847 2.338-1.137.632-2.238 1.09-3.305 1.37-1.067.282-2.268.493-3.604.634 1.219 1.055 1.828 2.719 1.828 4.992v8.403c0 .398.058.72.176.967a.967.967 0 0 0 .562.51c.259.093.487.151.686.175.2.023.487.035.862.035h7.875c2.788 0 5.173-.99 7.153-2.97C53.01 49.047 54 46.662 54 43.873v-33.75c0-2.788-.99-5.173-2.97-7.154z"/>
</svg>
