<svg xmlns="http://www.w3.org/2000/svg" viewBox="0 0 250 250">
  <title>
    GitHub Logo
  </title>
  <path fill="#fff" d="M54.52,197.44 C61.7559046,197.44 63.32,194.72 63.32,191.36 C63.32,188.32 63.16,178.24 63.16,167.52 C31,173.44 22.68,159.68 20.12,152.48 C18.68,148.8 12.44,137.44 7,134.4 C2.52,132 -3.88,126.08 6.84,125.92 C16.92,125.76 24.12,135.2 26.52,139.04 C38.04,158.4 56.44,152.96 63.8,149.6 C64.92,141.28 68.28,135.68 71.96,132.48 C43.48,129.28 13.72,118.24 13.72,69.28 C13.72,55.36 18.68,43.84 26.84,34.88 C25.56,31.68 21.08,18.56 28.12,0.96 C28.12,0.96 38.84,-2.4 63.32,14.08 C73.56,11.2 84.44,9.76 95.32,9.76 C106.2,9.76 117.08,11.2 127.32,14.08 C151.8,-2.56 162.52,0.96 162.52,0.96 C169.56,18.56 165.08,31.68 163.8,34.88 C171.96,43.84 176.92,55.2 176.92,69.28 C176.92,118.4 147,129.28 118.52,132.48 C123.16,136.48 127.16,144.16 127.16,156.16 C127.16,173.28 127,187.04 127,191.36 C127,194.72 129.4,198.72 135.8,197.44 C54.52,197.44 135.8,197.44 54.52,197.44 Z" />
</svg>
