<svg xmlns="http://www.w3.org/2000/svg" viewBox="0 0 500 500">
  <title>
    Instagram Logo
  </title>
  <path d="M250 120.5c42.2 0 47.2.1 63.9.9 15.4.7 23.7 3.3 29.3 5.4a52.3 52.3 0 0 1 30 30c2.1 5.6 4.7 14 5.4 29.4.8 16.6 1 21.6 1 63.8s-.2 47.2-1 63.9a87.4 87.4 0 0 1-5.4 29.3 52.4 52.4 0 0 1-30 30c-5.6 2.1-14 4.7-29.3 5.4-16.7.8-21.7 1-63.9 1s-47.2-.2-63.8-1a87.4 87.4 0 0 1-29.4-5.4 52.3 52.3 0 0 1-30-30c-2.1-5.6-4.7-14-5.4-29.3-.8-16.7-1-21.7-1-63.9s.2-47.2 1-63.8a87.4 87.4 0 0 1 5.4-29.4 52.3 52.3 0 0 1 30-30c5.6-2.1 14-4.7 29.4-5.4 16.6-.8 21.6-1 63.8-1m0-28.4c-43 0-48.3.2-65.1 1s-28.3 3.4-38.4 7.3a80.9 80.9 0 0 0-46.2 46.3c-4 10-6.6 21.4-7.3 38.3S92 207 92 250s.2 48.3 1 65.1 3.4 28.3 7.3 38.4a80.7 80.7 0 0 0 46.3 46.2c10 4 21.5 6.6 38.3 7.3s22.2 1 65.1 1 48.3-.2 65.2-1 28.3-3.4 38.3-7.3a80.8 80.8 0 0 0 46.3-46.2c3.8-10 6.5-21.5 7.3-38.4s.9-22.2.9-65.1-.2-48.3-1-65.1-3.4-28.3-7.3-38.4a80.9 80.9 0 0 0-46.2-46.2c-10-4-21.5-6.6-38.4-7.3S293 92 250 92z"/>
  <path d="M250 168.9a81.1 81.1 0 1 0 81.1 81.1 81.1 81.1 0 0 0-81.1-81.1zm0 133.8a52.7 52.7 0 1 1 52.7-52.7 52.7 52.7 0 0 1-52.7 52.7z"/>
  <circle cx="334.3" cy="165.7" r="19"/>
  <path d="M250 0a250 250 0 1 0 0 500 250 250 0 0 0 0-500zm0 475a225 225 0 1 1 0-450 225 225 0 0 1 0 450z"/>
</svg>
