<svg xmlns="http://www.w3.org/2000/svg" viewBox="0 0 448 512">
  <!-- Asset thanks to Font Awesome: https://fontawesome.com/license/free -->
  <title>Slack Logo</title>
  <path d="M244 218l19 57-59 20-20-58 60-19zm42 243C132 507 65 472 19 318S8 97 162 51s221-11 267 143 11 221-143 267zm80-196c-4-12-17-19-29-15l-29 10-19-58 29-9a23 23 0 0 0-15-44l-29 9-10-30a23 23 0 0 0-44 15l10 30-60 20-10-30a23 23 0 0 0-44 15l10 30-29 9c-12 4-19 18-15 30 3 9 12 15 22 16 4 0 7-1 37-11l19 58-29 9c-12 4-19 18-15 30 3 9 12 15 22 15 4 1 7 0 37-10l10 30c3 11 15 19 29 15 12-4 19-18 15-30l-10-30 59-20 10 30c4 11 16 19 30 15 12-4 18-17 15-30l-10-30 29-9c12-5 18-18 14-30z"/>
</svg>
