<svg xmlns="http://www.w3.org/2000/svg" viewBox="0 0 500 500">
  <title>
    Twitter Logo
  </title>
  <path d="M250 0a250 250 0 1 0 0 500 250 250 0 0 0 0-500zm0 475a225 225 0 1 1 0-450 225 225 0 0 1 0 450z"/>
  <path d="M191.4 378.2c119.2 0 184.4-98.8 184.4-184.5l-.1-8.4a131.8 131.8 0 0 0 32.3-33.5 129.5 129.5 0 0 1-37.2 10.2 65.1 65.1 0 0 0 28.5-35.9A130.1 130.1 0 0 1 358 142 64.9 64.9 0 0 0 247.6 201 184 184 0 0 1 114 133.2a64.9 64.9 0 0 0 20 86.6 64.3 64.3 0 0 1-29.3-8.1v.8a64.9 64.9 0 0 0 52 63.6 64.7 64.7 0 0 1-29.3 1 64.9 64.9 0 0 0 60.6 45 130 130 0 0 1-80.5 27.9 131.7 131.7 0 0 1-15.5-.9 183.4 183.4 0 0 0 99.4 29.1"/>
</svg>
