<svg xmlns="http://www.w3.org/2000/svg" viewBox="0 0 640 512"><title>Handshake</title><path d="M519 128l-47-48a56 56 0 0 0-40-16H205c-15 0-29 6-39 16l-48 48H0v256h64c18 0 32-15 32-32h9l85 76c30 25 73 26 105 4a61 61 0 0 0 90-8c22 9 48 3 64-17l26-32c6-7 9-15 11-23h58c0 17 15 32 32 32h64V128H519zM48 352c-9 0-16-8-16-16s7-16 16-16 16 7 16 16-7 16-16 16zm390-7l-26 32c-3 3-8 4-11 1l-24-19-30 36c-6 8-15 5-18 3l-37-32-16 19a40 40 0 0 1-55 7l-97-88H96V176h42l62-62 5-2h57l-39 35a72 72 0 0 0-4 102c15 16 61 41 101 4l9-7 108 87c3 3 4 8 1 12zm106-41h-69l-8-8-103-83 13-12c6-6 7-16 1-22l-11-12c-6-6-16-7-23-1l-55 51c-9 8-26 9-34 0-10-10-9-25 1-34l65-60c8-7 17-11 27-11h84l6 2 61 62h45v128zm48 48c-9 0-16-8-16-16s7-16 16-16 16 7 16 16-7 16-16 16z"/></svg>