<svg xmlns="http://www.w3.org/2000/svg" viewBox="0 0 480 512"><title>Thumbs Up</title><g class="negative-space"><path d="M410 275c9 0 22-19 22-38s-17-38-38-38H290c0-38 29-55 29-94 0-24 0-57-48-57-19 19-9 66-38 95-26 26-66 97-94 97h-11v186c54 0 100 38 172 38h37c36 0 61-17 54-66 15-8 26-36 14-57 21-21 18-52 5-66z"/><circle cx="64" cy="432" r="24"/></g><path fill="currentColor" d="M440 417a96 96 0 0 0 17-67 93 93 0 0 0 9-63 95 95 0 0 0 14-50c0-44-37-86-86-86h-36a128 128 0 0 0 9-46c0-73-38-105-96-105-61 0-58 95-71 109-23 22-50 66-69 83H32a32 32 0 0 0-32 32v240a32 32 0 0 0 32 32h64a32 32 0 0 0 31-24c45 1 75 40 178 40h22c77 0 112-39 113-95zM64 456a24 24 0 1 1 24-24 24 24 0 0 1-24 24zm327-58c7 49-18 66-54 66h-37c-72 0-118-38-172-38V240h11c28 0 68-71 94-97 29-29 19-76 38-95 48 0 48 33 48 57 0 39-29 56-29 94h104c21 0 38 19 38 38s-13 38-22 38c13 14 16 45-5 66 12 21 1 49-14 57z"/></svg>