<svg xmlns="http://www.w3.org/2000/svg" viewBox="0 0 384 512"><title>GI Bill Unavailable</title><path d="M377 105L279 7c-4-4-10-7-17-7h-6v128h128v-6c0-6-2-12-7-17zM204 264l2-5c0-2-1-4-3-5l-5-2h-18v14h18l6-2zM198 279h-18v15h18l7-2c2-1 2-4 2-6l-2-5c-2-2-4-2-7-2z" class="st0"/><path d="M248 160c-13 0-24-11-24-24V0H24C11 0 0 11 0 24v464c0 13 11 24 24 24h336c13 0 24-11 24-24V160H248zm-82 80h35l8 1c3 1 5 2 6 4l4 5 1 7c0 4-1 7-3 10l-8 5c3 0 6 2 9 5 2 3 3 7 3 11 0 5-1 10-5 13-3 3-8 5-14 5h-36v-66zM64 72c0-4 4-8 8-8h80c4 0 8 4 8 8v16c0 4-4 8-8 8H72c-4 0-8-4-8-8V72zm0 64c0-4 4-8 8-8h80c4 0 8 4 8 8v16c0 4-4 8-8 8H72c-4 0-8-4-8-8v-16zm33 161c-6 7-14 10-25 10a34 34 0 0 1-34-34c0-7 2-13 5-18s8-9 13-12a38 38 0 0 1 35 0l6 5 4 5-12 7c-1-3-3-5-6-7l-9-2c-6 0-11 2-15 6s-6 10-6 16 2 11 6 16 9 6 15 6c4 0 8-2 11-4s5-6 6-9H70v-13h37c0 12-3 21-10 28zm30 9h-14v-66h14v66zm118 138l-17 17-34-34-35 35-17-18 35-34-35-34 17-17 35 34 34-34 17 17-34 34 34 34zm1-138h-14v-66h14v66zm13 0v-66h14v53h28v13h-42zm93 0h-42v-66h14v53h28v13z" class="st0"/></svg>