<svg xmlns="http://www.w3.org/2000/svg" viewBox="0 0 54 54"><title>LinkedIn Logo</title><path fill-rule="evenodd" d="M51.03 2.97C49.05.99 46.664 0 43.875 0H10.125C7.336 0 4.951.99 2.971 2.97.99 4.951 0 7.336 0 10.125v33.75c0 2.789.99 5.173 2.97 7.154C4.952 53.01 7.337 54 10.126 54h33.75c2.79 0 5.174-.99 7.154-2.97C53.009 49.047 54 46.663 54 43.874v-33.75c0-2.789-.99-5.174-2.97-7.155zM16.452 45.21h-8.12V20.813h8.12v24.399zm-.738-28.915c-.843.809-1.957 1.213-3.34 1.213h-.035c-1.336 0-2.42-.404-3.252-1.213-.832-.809-1.248-1.81-1.248-3.006 0-1.218.428-2.226 1.283-3.023.856-.797 1.963-1.196 3.322-1.196 1.36 0 2.45.399 3.27 1.196.82.797 1.242 1.805 1.265 3.023 0 1.195-.421 2.197-1.265 3.006zm29.953 28.916h-8.12V32.168c0-3.68-1.36-5.52-4.079-5.52-1.03 0-1.898.287-2.601.862a5.416 5.416 0 0 0-1.582 2.092c-.164.422-.246 1.078-.246 1.968v13.64h-8.122c.07-14.718.07-22.851 0-24.398h8.122v3.445c1.707-2.67 4.132-4.008 7.277-4.008 2.813 0 5.075.926 6.786 2.777 1.71 1.852 2.566 4.583 2.566 8.191v13.994z"/></svg>