<svg xmlns="http://www.w3.org/2000/svg" viewBox="0 0 512 512"><title>Pinterest Logo</title><path d="M426.7 0H85.3A85.3 85.3 0 0 0 0 85.3v341.4A85.3 85.3 0 0 0 85.3 512h341.4a85.3 85.3 0 0 0 85.3-85.3V85.3A85.3 85.3 0 0 0 426.7 0zM280.8 342c-23.2-1.7-33-13.3-51.2-24.3-10 52.5-22.3 103-58.6 129.3-11.2-79.5 16.4-139.2 29.3-202.6-22-36.8 2.6-111 48.8-92.7 56.8 22.5-49.2 137 22 151.3 74.3 15 104.6-129 58.5-175.7-66.5-67.5-193.8-1.5-178.1 95.2 3.8 23.6 28.2 30.8 9.7 63.4-42.6-9.4-55.3-43-53.7-87.8 2.7-73.4 66-124.7 129.4-131.8 80.2-9 155.5 29.4 166 105 11.7 85.1-36.3 177.4-122 170.8z"/></svg>