<svg xmlns="http://www.w3.org/2000/svg" viewBox="0 0 34 34">
  <title>
    Campus Icon
  </title>
  <g fill="currentColor" fill-rule="nonzero">
    <path d="M33.4 0H.6C.3 0 0 .3 0 .6V12h1.1v-11H33v12.7H13V15h20.4c.3 0 .6-.3.6-.6V.6c0-.3-.3-.6-.6-.6z"/>
    <path d="M19 3h11v1H19zM20 6h11v2H20zM18 10h11v2H18zM17.9 4.6a1.8 1.8 0 0 0-2.4-1l-4.6 2.5.3-1.2C11.2 3.3 9.9 2 8.4 2a2.8 2.8 0 0 0-2.8 2.9c0 .6.2 1.2.6 1.7-1.6 0-3 1-3.6 2.5L1 14.4c-.4 1 0 2 1 2.3.4.2.9.2 1.3 0 .5-.2.9-.6 1-1l.6-2V22c-.4-.4-1-.6-1.6-.6a2.8 2.8 0 0 0-2.8 2.9c0 .7.3 1.5.8 2-.9.5-1.4 1.4-1.4 2.3v4.8c0 .3.3.6.6.6h5.6c.3 0 .5-.3.5-.6v-4.8c0-.8-.4-1.5-1-2H10c-.7.5-1 1.2-1 2v4.8c0 .3.2.6.5.6h5.6c.3 0 .6-.3.6-.6v-4.8c0-1-.6-1.8-1.4-2.3 1-1.1 1-2.9 0-4-.7-.7-1.6-1-2.5-.8V9.8l5-2.7c1-.4 1.4-1.5 1-2.5zM8.4 3.1c1 0 1.7.8 1.7 1.8 0 .9-.8 1.7-1.7 1.7-1 0-1.7-.8-1.7-1.7 0-1 .8-1.8 1.7-1.8zm-5 19.5c.9 0 1.6.7 1.6 1.7S4.3 26 3.4 26c-1 0-1.7-.8-1.7-1.7 0-1 .7-1.7 1.7-1.7zm2.2 10.3H1.1v-4.3c0-.8.7-1.5 1.5-1.5H4c.8 0 1.5.7 1.5 1.5V33zm9-4.3V33H10v-4.3c0-.8.6-1.5 1.4-1.5h1.6c.8 0 1.4.7 1.4 1.5zm-2.3-6c1 0 1.7.7 1.7 1.7s-.8 1.7-1.7 1.7c-1 0-1.7-.8-1.7-1.7 0-1 .8-1.7 1.7-1.7zm4.5-17c0 .2-.2.3-.4.4L11 9c-.2 0-.3.2-.3.4V22c-1 .8-1.4 2.2-.8 3.4H9v-9.7H7.8v9.7H6c.2-.3.2-.7.3-1.1V10c0-.3-.3-.6-.6-.6-.2 0-.5.2-.5.4l-1.7 5.5a.7.7 0 0 1-1 .3.7.7 0 0 1-.3-.9l1.5-5.2C4 8.5 5 7.7 6.1 7.7h4.3l5.5-3c.4-.1.7 0 1 .3v.6zM23.5 26a3 3 0 0 0 0-4.1 2.9 2.9 0 0 0-4 0 3 3 0 0 0 0 4.2c-1 .4-1.5 1.4-1.5 2.4v5c0 .2.3.5.6.5h5.8c.3 0 .6-.3.6-.6v-5c0-1-.6-1.9-1.5-2.3zm-2-3.8c1 0 1.8.8 1.8 1.8s-.8 1.7-1.8 1.7-1.8-.8-1.8-1.7c0-1 .8-1.8 1.8-1.8zm2.3 10.6h-4.6v-4.3c0-.9.7-1.6 1.5-1.6h1.6c.8 0 1.5.7 1.5 1.6v4.3zM32.5 26a3 3 0 0 0 0-4.1 2.9 2.9 0 0 0-4 0 3 3 0 0 0 0 4.2c-1 .4-1.5 1.4-1.5 2.4v5c0 .2.3.5.6.5h5.8c.3 0 .6-.3.6-.6v-5c0-1-.6-1.9-1.5-2.3zm-2-3.8c1 0 1.8.8 1.8 1.8s-.8 1.7-1.8 1.7-1.8-.8-1.8-1.7c0-1 .8-1.8 1.8-1.8zm2.3 10.6h-4.6v-4.3c0-.9.7-1.6 1.5-1.6h1.6c.8 0 1.5.7 1.5 1.6v4.3z"/>
  </g>
</svg>
