 <svg xmlns="http://www.w3.org/2000/svg" viewBox="0 0 85 85">
    <title>
        Career Services Icon
    </title>
    <g fill="#1D3C52" fill-rule="nonzero">
        <path d="M6 68h3v3H6zM58.9 65l-1.3-2.7c-.2-.2-.4-.5-.7-.6L48.2 58l-.7-2.2c2.3-1.8 3.7-4.8 3.7-8.5V37c0-.3-.2-.7-.4-1-2.5-2-5.6-3-8.8-2.9-3.2-.1-6.3 1-8.8 3-.2.2-.4.6-.4 1v10.3c0 3.7 1.4 6.7 3.7 8.5l-.7 2.2-8.7 3.7c-.3.1-.5.4-.7.6L25.1 65l-.1.6V85h2.6V65.8l1-1.9 7.8-3.4 4.3 4.2V72h2.6v-7.3l4.3-4.2 7.8 3.4 1 2V85H59V65.5l-.1-.6zM35.5 37.4c1.9-1.3 4.2-2 6.5-1.9 2.3 0 4.6.6 6.5 2v5.6c-.6-.1-1.3-.5-1.3-1 0-.8-.6-1.4-1.3-1.4h-7.8c-.7 0-1.3.6-1.3 1.3 0 .6-.7 1-1.3 1.1v-5.7zM42 62.4l-3.7-3.7.5-1.6a9.1 9.1 0 0 0 6.4 0l.5 1.6-3.7 3.7zm0-7.3c-4.8 0-6.5-4.2-6.5-7.8V46c1.5-.2 3-1.1 3.6-2.5H45a4.6 4.6 0 0 0 3.6 2.5v1.4c0 3.6-1.7 7.8-6.5 7.8z"/>
        <path d="M33 78h3v7h-3zM50 78h3v7h-3zM58.7 19.8L43.7.5c-.2 0-.2-.1-.3-.2-.6-.5-1.5-.4-2 .2L26.3 19.8c-.2.2-.3.5-.3.8 0 .7.6 1.3 1.4 1.3h5.5V27h2.7v-6.4c0-.7-.6-1.3-1.3-1.3H30L42.5 3.4l12.4 15.9h-4.2c-.7 0-1.3.6-1.3 1.3V27H52v-5.1h5.5c.3 0 .6-.1.8-.3.7-.4.8-1.2.3-1.8zM84.7 39.2l-15-19.7c-.2 0-.2-.1-.3-.2-.6-.5-1.5-.4-2 .2L52.3 39.2c-.2.3-.3.5-.3.8 0 .7.6 1.3 1.4 1.3h5.5v9.2h2.7V40c0-.7-.6-1.3-1.3-1.3H56l12.4-16.2 12.4 16.2H68.5v2.6h6.9V65H78V41.3h5.5c.3 0 .6 0 .8-.2.7-.5.8-1.3.3-1.9zM32.7 39.2l-15-19.7c-.2 0-.2-.1-.3-.2-.6-.5-1.5-.4-2 .2L.3 39.2c-.2.3-.3.5-.3.8 0 .7.6 1.3 1.4 1.3h5.5V65h2.7V41.3h6.9v-2.6H4.1l12.4-16.2 12.4 16.2h-4.2c-.7 0-1.3.6-1.3 1.3v10.5H26v-9.2h5.5c.3 0 .6 0 .8-.2.7-.5.8-1.3.3-1.9z"/>
        <path d="M23 52h3v3h-3zM60 52h3v3h-3zM76 68h3v3h-3z"/>
    </g>
</svg>
