<svg xmlns="http://www.w3.org/2000/svg" viewBox="0 0 45 35">
  <title>
    Equipment Icon
  </title>
  <path fill="currentColor" fill-rule="nonzero" d="M42.7 17.1h-5.2V3.7c0-2-1.7-3.7-3.7-3.7H11.3C9.2 0 7.5 1.7 7.5 3.7v4.5H3.4A3.4 3.4 0 0 0 0 11.6v20C0 33.5 1.5 35 3.4 35h12c1.4 0 2.7-.9 3.1-2.2h13c.4 0 .8-.4.8-.8v-1.5c0-1.2-1-2.2-2.3-2.2h-2.2v-3h6v7.4c0 1.3 1 2.3 2.3 2.3h6.6c1.3 0 2.3-1 2.3-2.3V19.4c0-1.2-1-2.3-2.3-2.3zM17.3 31.6c0 1-.9 2-2 2h-12c-1 0-1.8-1-1.8-2v-.3h15.8v.3zm0-1.8H1.5V13.4h15.8v16.4zm0-17.9H1.5v-.3c0-1 .8-2 1.9-2h12c1 0 1.8 1 1.9 2v.3zM30 29.8c.4 0 .8.3.8.7v.8h-12v-1.5H30zm-11.2-1.5v-3h7.4v3h-7.4zm15-4.5h-15v-2.2h15v2.2zm0-4.4v.7h-15v-8.5c0-1.9-1.6-3.4-3.4-3.4H9V3.7c0-1.2 1-2.2 2.3-2.2h22.5c1.2 0 2.2 1 2.2 2.2v13.4c-1.3 0-2.2 1-2.2 2.3zm9.7 13.3c0 .4-.4.8-.8.8H36a.8.8 0 0 1-.8-.8V32h8.2v.7zm0-2.2h-8.2v-8.9h8.2v9zm0-10.4h-8.2v-.7c0-.4.3-.8.8-.8h6.6c.4 0 .8.4.8.8v.7z" />
</svg>
