<svg xmlns="http://www.w3.org/2000/svg" viewBox="0 0 54 54">
  <title>
    Facebook Logo
  </title>
  <path fill="#249CBC" fill-rule="evenodd" d="M51.03 2.97C49.05.99 46.664 0 43.875 0H10.125C7.336 0 4.951.99 2.971 2.97.99 4.951 0 7.336 0 10.125v33.75c0 2.789.99 5.173 2.97 7.154C4.952 53.01 7.337 54 10.126 54h33.75c2.79 0 5.174-.99 7.154-2.97C53.009 49.047 54 46.663 54 43.874v-33.75c0-2.789-.99-5.174-2.97-7.155zm-5.08 24.803h-6.153v22.324h-9.21V27.773H25.98v-7.7h4.605v-4.605c0-3.305.774-5.8 2.32-7.488 1.547-1.688 4.101-2.531 7.664-2.531h6.153v7.699h-3.867c-1.312 0-2.15.228-2.514.686-.363.457-.545 1.26-.545 2.408v3.832h6.961l-.808 7.699z"/>
</svg>
