<svg xmlns="http://www.w3.org/2000/svg" viewBox="0 0 53 53">
  <title>
    Twitter Logo
  </title>
  <path fill="#249CBC" fill-rule="evenodd" d="M50.084 2.915C48.141.972 45.801 0 43.064 0H9.937C7.2 0 4.859.972 2.916 2.915.972 4.86 0 7.2 0 9.937v33.125c0 2.737.972 5.078 2.916 7.022C4.859 52.028 7.2 53 9.938 53h33.125c2.737 0 5.078-.972 7.021-2.916C52.028 48.14 53 45.8 53 43.062V9.937c0-2.737-.972-5.078-2.916-7.022zm-9.54 17.478c.023.207.035.517.035.931 0 1.933-.283 3.87-.846 5.814a20.823 20.823 0 0 1-2.588 5.59 21.756 21.756 0 0 1-4.157 4.727c-1.61 1.369-3.542 2.462-5.797 3.278-2.254.817-4.67 1.226-7.246 1.226-4.002 0-7.706-1.082-11.11-3.244.552.069 1.127.104 1.725.104 3.335 0 6.337-1.035 9.006-3.106-1.564-.023-2.962-.505-4.193-1.45a7.367 7.367 0 0 1-2.57-3.588c.598.092 1.046.137 1.345.137.506 0 1.093-.091 1.76-.275-1.68-.323-3.094-1.156-4.244-2.502-1.15-1.345-1.726-2.88-1.726-4.606v-.069c1.22.575 2.37.874 3.45.897-2.093-1.403-3.14-3.416-3.14-6.038 0-1.289.334-2.507 1.001-3.658a20.54 20.54 0 0 0 6.625 5.348 20.515 20.515 0 0 0 8.35 2.243c-.114-.437-.172-.989-.172-1.656 0-2.002.707-3.71 2.122-5.124 1.415-1.415 3.123-2.122 5.124-2.122 2.117 0 3.877.759 5.28 2.277 1.587-.299 3.13-.886 4.624-1.76-.575 1.771-1.645 3.117-3.209 4.038a15.364 15.364 0 0 0 4.174-1.174 14.085 14.085 0 0 1-3.623 3.762z"/>
</svg>
