<svg xmlns="http://www.w3.org/2000/svg" viewBox="0 0 486.7 486.7">
  <title>
    Chart Icon
  </title>
  <path d="M33 362.4v78.9c0 4.8 3.9 8.8 8.8 8.8h61c4.8 0 8.8-4 8.8-8.8V302.5l-44.3 44.3A53.7 53.7 0 0 1 33 362.4zM142 301.5v139.8c0 4.8 3.9 8.8 8.8 8.8h61c4.8 0 8.8-4 8.8-8.8V359a53.2 53.2 0 0 1-36.7-15.6l-41.9-42zM251 350.3v91c0 4.8 3.9 8.8 8.8 8.8h61c4.8 0 8.8-4 8.8-8.8v-168l-69.9 70c-2.7 2.7-5.6 5-8.7 7zM432.7 170.2L360 242.9v198.4c0 4.8 3.9 8.8 8.8 8.8h61c4.8 0 8.8-4 8.8-8.8V175.7l-4.6-4.2-1.3-1.3z"/>
  <path d="M482.6 41.4c-2.9-3.1-7.3-4.7-12.9-4.7h-1.6l-85.1 4c-3.8.2-9 .4-13.1 4.5a14.9 14.9 0 0 0-3.1 4.6c-4.2 9 1.7 15 4.5 17.8l7.1 7.2 14.9 14.9-171.6 171.7-77.1-77.1a24.5 24.5 0 0 0-34.7 0L7.2 286.9a24.5 24.5 0 0 0 0 34.7l4.6 4.6a24.5 24.5 0 0 0 34.7 0l80.7-80.7 77.1 77a24.5 24.5 0 0 0 34.8 0L432.7 129l21.9 21.8c2.6 2.6 6.2 6.2 11.7 6.2 2.3 0 4.6-.6 7-2a19 19 0 0 0 4.2-3c4.3-4.3 5.1-9.8 5.3-14.1l2.6-55.3 1.3-27.7c.3-5.8-1-10.3-4.1-13.5z"/>
</svg>
