<svg xmlns="http://www.w3.org/2000/svg" viewBox="0 0 451.72 451.72"><title>High Five Icon</title><path d="M163.38 80.92l24.8 9.26 4.32-6.16a34.64 34.64 0 0 1 5.54-6.18l-10.58-3.94 11.98-4.47a7.5 7.5 0 0 0 4.3-9.9l-7.67-18.45 25.88 17.3a7.5 7.5 0 0 0 11.2-3.65l5.97-16.26 7.49 10.25a7.5 7.5 0 0 0 9.57 2.2l13.16-6.99-11.96 21.6a7.5 7.5 0 0 0 3.84 10.62l11.57 4.5-11.82 3.81c-.45.15-.88.34-1.3.56l8.93 12.74 28.86-9.29a7.5 7.5 0 0 0 .42-14.13l-23.22-9.05 20.03-36.2a7.5 7.5 0 0 0-10.08-10.25l-29.73 15.78-11.92-16.32a7.5 7.5 0 0 0-13.1 1.85l-7.5 20.46-38.58-25.79a7.5 7.5 0 0 0-11.1 9.12L186.9 58.1l-23.53 8.77a7.5 7.5 0 0 0 0 14.05zM115.37 145.19a32.58 32.58 0 1 0 11.18-64.2 32.58 32.58 0 0 0-11.18 64.2z"/><path d="M451.33 262l-12.75-54.24a14.76 14.76 0 0 0-4.92-7.95l-52.79-44.03c-3.4-2.83-7.63-3.35-11.73-3.23-1.93.06-50 8.67-50 8.67l-44.9-20.52-31.4-44.86a14.84 14.84 0 0 0-16.5-5.61 14.8 14.8 0 0 0-17.46 5.26l-31.41 44.86-44.9 20.52s-46-8.55-50-8.67c-4.09-.12-8.33.4-11.72 3.23l-52.8 44.03a14.76 14.76 0 0 0-4.9 7.96L.38 261.65a14.76 14.76 0 0 0 28.73 6.75l11.62-49.43 16.14-13.46-30.3 213.26a17.19 17.19 0 0 0 34.09 4.4L78.2 287.57l3.95.69 46.9 49.44-11.8 80.8a17.19 17.19 0 1 0 34.01 4.97l13.02-89.06c.76-5.21-.91-10.5-4.54-14.31l-32.4-34.16 17.1-98.03 48.94-22.38c2.4-1.1 4.45-2.8 5.95-4.96l26.4-37.7 26.64 38.05a14.76 14.76 0 0 0 5.95 4.96l48.95 22.38 16.36 93.79c-11.93 53.92-11.13 50.2-11.27 51.2l-11.93 85.35a17.19 17.19 0 0 0 34.05 4.76l11.83-84.7 10.59-47.85 16.65-2.9 17.5 135.28a17.19 17.19 0 0 0 34.09-4.41l-17.69-136.78-12.61-76.13 16.13 13.45 11.62 49.44a14.76 14.76 0 0 0 28.73-6.75z"/><path d="M298.67 119.04a32.58 32.58 0 1 0 64.18-11.2 32.58 32.58 0 0 0-64.18 11.2z"/></svg>