<svg xmlns="http://www.w3.org/2000/svg" viewBox="0 0 75 75"><title>Mentorship Icon</title><g fill="currentColor" fill-rule="nonzero"><path d="M27 53h-1c2-1 3-4 3-6v-8-6l-2-1h-9c-5 0-8 3-8 8v7c0 2 1 5 3 6h-1C5 54 0 60 0 67v7l1 1h37l1-1v-7c0-7-5-13-12-14zM13 41v-1c0-3 2-5 5-5h8v3c0 2-1 4-3 4H13v-1zm0 4h10l3-1v3c0 3-3 6-6 6-4 0-7-3-7-6v-2zm10 11l-3 4-4-4h7zm13 16H3v-3h6l1-1-1-2H3c0-5 4-9 9-10l6 7a1 1 0 0 0 3 0l6-7c5 1 9 6 9 11v5zM63 21h-1c2-1 3-4 3-6V7 1l-2-1h-9c-5 0-8 3-8 8v7c0 2 1 5 3 6h-1c-7 1-12 7-12 14v7l1 1h12l2-1-2-2H39v-5c0-5 4-10 9-11l6 7a1 1 0 0 0 3 0l6-7c5 1 9 6 9 11v5H61l-1 2 1 1h13l1-1v-7c0-7-5-13-12-14zm-7 7l-4-4h7l-3 4zm6-13c0 3-3 6-6 6-4 0-7-3-7-6v-2h10l3-1v3zm0-9c0 2-1 4-3 4H49V8c0-3 2-5 5-5h8v3z"/><path d="M57 39a2 2 0 0 0-3 0 2 2 0 0 0 2 3 2 2 0 0 0 1-3zM39 20l-6-6V7c0-4-4-7-8-7H7C3 0 0 3 0 7v13c0 4 3 7 7 7h18c3 0 6-2 7-4h6l1-1v-2zm-8 0l-1 1c-1 2-3 3-5 3H7c-2 0-4-2-4-4V7c0-2 2-4 4-4h18c3 0 5 2 5 4v9l4 4h-3zM68 48H50c-3 0-6 2-7 4h-6l-1 1v2l6 6v7c0 4 4 7 8 7h18c4 0 7-3 7-7V55c0-4-3-7-7-7zm4 20c0 2-2 4-4 4H50c-3 0-5-2-5-4v-8-1l-4-4h3l1-1c1-2 3-3 5-3h18c2 0 4 2 4 4v13z"/><path d="M66 56h-3l-4 4-1-1h-3v2l3 3a2 2 0 0 0 2 0l6-5v-3zM24 10c0-3-2-5-5-5l-4 1-2 4 2 2 1-2 1-1 2-1 2 2-2 2-2 3v1l1 1 2-1v-1c3-1 4-3 4-5zM20 20a2 2 0 0 0-3 0 2 2 0 0 0 2 3 2 2 0 0 0 1-1v-2zM16 66a2 2 0 0 0-3 0 2 2 0 0 0 0 3 2 2 0 0 0 3 0 2 2 0 0 0 0-3z"/></g></svg>