<svg xmlns="http://www.w3.org/2000/svg" viewBox="0 0 45 34"><title>Online Icon</title><g fill="currentColor" fill-rule="nonzero"><path d="M17 17h2v2h-2zM20 17h2v2h-2zM23 17h2v2h-2zM29 14.5V9l-7.6-4L13 9.4l3.6 2v3.1c0 .8.6 1.5 1.4 1.5h7c.7 0 1.2-.7 1.2-1.5v-3.2l1.5-.8v4H29zm-4 0v.1h-7-.1V12l3.5 1.8 3.5-1.8v2.5zm-3.6-2.2L16 9.4l5.5-2.9 5.5 3-5.5 2.8z"/><path d="M8.3 4.3h24.4v10.2H34V3H7v17h23.5v-1.3H8.3z"/><path d="M45 20.5a6.3 6.3 0 0 0-7.8-6.2v-13C37.2.6 36.7 0 36 0H6.3C5.6 0 5 .6 5 1.3v21.1L0 28.8v2.4c0 .7.7 1.4 1.4 1.4h33.8V34H37l1.8-1.9 1.9 1.9h1.6v-8.2c1.7-1.1 2.8-3 2.8-5.3zM6.2 1.3H36v13.5a6.5 6.5 0 0 0-3.3 7.2H6.2V1.3zm29 24.5v2.6H24.4l-.7.7h-5.1l-.7-.7H2l3.9-5h27c.6 1 1.3 1.8 2.2 2.4zM1.4 31.2v-1.5h16l.6.7h6.2l.7-.7h10.3v1.5H1.4zm39.4 1.2l-2.1-2.2-2.2 2.2v-6a6.3 6.3 0 0 0 4.3 0v6zm-2-6.9a5 5 0 0 1-5-5 5 5 0 0 1 5-5 5 5 0 0 1 4.9 5 5 5 0 0 1-5 5z"/><path d="M38.5 17a3.5 3.5 0 1 0 0 7 3.5 3.5 0 0 0 0-7zm0 5.7a2.2 2.2 0 1 1 0-4.4 2.2 2.2 0 0 1 0 4.4z"/></g></svg>