<svg xmlns="http://www.w3.org/2000/svg" viewBox="0 0 512 512">
  <title>Checkered Flag</title>
  <path d="M467 67c21-10 45 6 45 29v243c0 11-5 20-14 26-36 25-74 41-122 41-68 0-112-35-166-35-50 0-86 11-114 23v94c0 13-11 24-24 24H56c-13 0-24-11-24-24V102a56 56 0 1 1 84-26c21-8 43-12 68-12 68 0 112 35 166 35 40 0 82-16 117-32zM96 135v70c29-11 51-18 74-21v-71c-24 2-41 9-74 22zm221 9c-27-5-50-14-74-22v68c24 7 48 16 74 22v-68zm-147 40v70c32-3 54 0 73 4v-68c-25-7-46-10-73-6zm73 142c27 5 50 14 74 22v-68c-24-6-48-16-74-22v68zM96 342c24-8 48-14 74-16v-72c-27 3-48 8-74 18v70zm368-221c-21 8-47 17-74 22v72c28-4 50-14 74-24v-70zm0 209v-70c-22 14-49 23-74 26v72c25-3 49-11 74-28zM317 212v68c25 8 46 10 73 6v-71c-26 4-50 3-73-3z"/>
</svg>
