<svg xmlns="http://www.w3.org/2000/svg" viewBox="0 0 448 512">
  <title>Hand Holding Up Peace Sign</title>
  <path d="M362 192a66 66 0 0 0-65-30V74c0-41-33-74-73-74s-73 33-73 74l9 94-19-79a73 73 0 0 0-95-42 74 74 0 0 0-41 96l56 145c-31 25-44 58-25 92l55 98c12 21 34 34 58 34h205c31 0 58-21 65-52l27-119a68 68 0 0 0 2-15v-70c0-45-43-77-86-64zm38 134l-1 4-27 119c-2 9-9 15-18 15H149c-7 0-13-4-16-9l-55-98c-5-9-3-19 4-25l27-22a16 16 0 0 0 5-18L50 126c-13-33 34-51 47-20l59 156a16 16 0 0 0 15 10h12c9 0 16-7 16-16V74c0-34 50-34 50 0v182c0 9 7 16 16 16h7c9 0 16-7 16-16v-28c0-25 37-25 37 0v28c0 9 7 16 16 16h6c9 0 16-7 16-16 0-25 37-25 37 0v70z"/>
</svg>
