<svg xmlns="http://www.w3.org/2000/svg" viewBox="0 0 480 512"><title>Thumbs Down</title><g class="negative-space"><path d="M394 313c21 0 38-19 38-38s-13-38-22-38c13-14 16-45-5-66 12-21 1-49-14-57 7-49-18-66-54-66h-37c-72 0-118 38-172 38v186h11c28 0 68 71 94 97 29 29 19 76 38 95 48 0 48-33 48-57 0-39-29-56-29-94z"/><circle cx="64" cy="272" r="24"/></g><path fill="currentColor" d="M367 407a128 128 0 0 0-9-46h36c49 0 86-42 86-86a95 95 0 0 0-14-50 93 93 0 0 0-9-63 96 96 0 0 0-17-67c-1-56-36-95-113-95h-22C201 0 169 40 128 40h-11a32 32 0 0 0-21-8H32A32 32 0 0 0 0 64v240a32 32 0 0 0 32 32h64a32 32 0 0 0 28-16h7c19 17 46 61 69 83 13 14 10 109 71 109 58 0 96-32 96-105zM64 296a24 24 0 1 1 24-24 24 24 0 0 1-24 24zm207 168c-19-19-9-66-38-95-26-26-66-97-94-97h-11V86c54 0 100-38 172-38h37c36 0 61 17 54 66 15 8 26 36 14 57 21 21 18 52 5 66 9 0 22 19 22 38s-17 38-38 38H290c0 38 29 55 29 94 0 24 0 57-48 57z"/></svg>