<svg xmlns="http://www.w3.org/2000/svg" viewBox="0 0 384.53 373.73"><title>Networked People Symbol</title><path d="M192.27 52.59s-37.18 2.12-37.18 28.68v68h74.36v-68c0-26.56-37.18-28.68-37.18-28.68z"/><circle cx="192.27" cy="23.9" r="23.9"/><path d="M196.51 182.41v-16.97h-8.49v16.97H32.93v25.88h8.48v-17.38h146.61v17.02h8.49v-17.02h146.61v17.38h8.48v-25.88H196.51zM37.18 277.07S0 279.2 0 305.75v68h74.36v-68c0-26.55-37.18-28.68-37.18-28.68z"/><circle cx="37.18" cy="248.39" r="23.9"/><path d="M192.27 277.07s-37.18 2.13-37.18 28.68v68h74.36v-68c0-26.55-37.18-28.68-37.18-28.68z"/><circle cx="192.27" cy="248.39" r="23.9"/><path d="M347.36 277.07s-37.18 2.13-37.18 28.68v68h74.36v-68c0-26.55-37.18-28.68-37.18-28.68z"/><circle cx="347.35" cy="248.39" r="23.9"/></svg>