<svg xmlns="http://www.w3.org/2000/svg" viewBox="0 0 98 77"><title>Scholarships Icon</title><g fill="currentColor" fill-rule="nonzero"><path d="M97.3 23.4C96.1 22.4 67.7 0 50.1 0 32.6 0 4.1 22.5 3 23.4a2 2 0 0 0-.8 1.6c0 .6.3 1.2.8 1.5.3.3 2.3 1.9 5.5 4.2V43L.5 53a2 2 0 0 0-.5 1.2V75c0 1.1 1 2 2 2h16.8a2 2 0 0 0 2-2V54.2a2 2 0 0 0-.4-1.2l-8-10v-9.5L23 40.2v23.6a2 2 0 0 0 1.2 1.8c.7.2 16.1 7 25 7.2h.6c10.1 0 27.4-6.9 28.2-7.2a2 2 0 0 0 1.2-1.9V39c9.7-5.9 17.4-12 18-12.5.5-.4.8-1 .8-1.5a2 2 0 0 0-.7-1.6zM16.8 55V73H4V55l6.4-8 6.3 7.9zm58.4 7.5a90 90 0 0 1-26 6.4 80.3 80.3 0 0 1-22-6.4v-20a54.2 54.2 0 0 0 23 7.6c7.4 0 16.7-4 25-8.7v21.1zM50.2 46C36.4 46 14.2 30 7.4 25c6.8-5.1 29-21 42.6-21C63.8 4 86 19.9 92.7 25c-6.7 5-29 21-42.6 21z"/><path d="M9 60c0 1.1.9 2 2 2s2-.9 2-2-.9-2-2-2a2 2 0 0 0-2 2zM48.4 16v4.6a5.9 5.9 0 0 0-4.2 6.5c.2 3 3 5.3 6.3 5.4 1.2 0 2 .8 2.3 2 0 1-.7 1.9-1.8 2.2-1.2.4-2.5 0-3.1-1-.6-1-2-1.2-3-.6a2 2 0 0 0-.6 2.7c1 1.4 2.4 2.4 4 2.8V45c0 1.1 1 2 2.2 2a2 2 0 0 0 2-2v-4.6c2.9-1 4.7-3.6 4.5-6.3v-.2c-.5-3-3-5.1-6.1-5.4h-.2c-1.2 0-2.3-.7-2.3-1.7v-.2a2 2 0 0 1 1.5-2.3h.2c1-.3 2.3.3 2.9 1.3.5 1 1.7 1.4 2.8 1a2 2 0 0 0 1-2.7 6.8 6.8 0 0 0-4.2-3.4V16c0-1.1-1-2-2.1-2a2 2 0 0 0-2.1 2z"/></g></svg>