<svg xmlns="http://www.w3.org/2000/svg" viewBox="0 0 576 512">
  <title>
    Devices
  </title>
  <path d="M576 48a48 48 0 0 0-48-48H48A48 48 0 0 0 0 48v441c0 13 7 23 15 23h112c8 0 14-11 14-23l1-73h98l-16 48h-42a24 24 0 1 0 0 48h112a33 33 0 0 0 3 0h131c1 0 2 0 0 0h115a34 34 0 0 0 33-34V188a34 34 0 0 0 0-5zM123 474a2 2 0 0 1-1 0H19c-2 0-4-2-4-5V294c0-3 2-6 4-6h104c2 0 3 2 4 5v175c0 3-2 6-4 6zm18-122v-64c0-13-6-23-14-23H64V64h448v90H297a34 34 0 0 0-34 34v164zm280 138h-1a22 22 0 1 1 1 0zm115-67a8 8 0 0 1-2 0H305a8 8 0 0 1-8-8 8 8 0 0 1 0-1V196a8 8 0 0 1 8-8h229a8 8 0 0 1 9 7 9 9 0 0 1 0 1v218a8 8 0 0 1-7 9z"/>
</svg>